<?xml version="1.0" encoding="utf-8"?>
<!-- Generator: Adobe Illustrator 19.0.0, SVG Export Plug-In . SVG Version: 6.00 Build 0)  -->
<svg version="1.1" id="Layer_1" xmlns="http://www.w3.org/2000/svg" xmlns:xlink="http://www.w3.org/1999/xlink" x="0px" y="0px"
	 viewBox="-173 304.2 263.8 184.8" style="enable-background:new -173 304.2 263.8 184.8;" xml:space="preserve">
<style type="text/css">
	.st0{fill:#FFFFFF;}
</style>
<g>
	<g id="XMLID_194_">
		<path id="XMLID_195_" class="st0" d="M-167.4,450.4c0,4.3,3.3,7.8,7.3,7.8c2.4,0,5.6-0.8,6.9-4.6h-6.4v-4.2h12.4v0.9
			c0,7.1-5.7,13-12.9,13c-7.1,0-13-5.8-13-13c0-7.2,5.8-13,13-13c5.6,0,10.5,3.6,12.3,8.8h-6.1c-1.2-2.7-3.7-3.7-6.2-3.7
			C-164,442.5-167.4,446.1-167.4,450.4z"/>
		<path id="XMLID_197_" class="st0" d="M-129,462.9h-14.6v-25.2h14.6v5h-9v5h8.7v5h-8.7v5.1h9V462.9z"/>
		<path id="XMLID_199_" class="st0" d="M-112.6,463.3c-7,0-13-6-13-13s6-13,13-13s13,6,13,13S-105.6,463.3-112.6,463.3z
			 M-112.6,442.9c-3.9,0-7.4,3.5-7.4,7.4c0,3.9,3.5,7.4,7.4,7.4s7.4-3.6,7.4-7.4C-105.2,446.4-108.7,442.9-112.6,442.9z"/>
		<path id="XMLID_202_" class="st0" d="M-81.9,456c0-4.9-14.5-1.7-14.5-11c0-5.2,4.8-7.6,9.4-7.6c5.2,0,9.8,2.3,10,8h-5.4
			c-0.3-2.6-1.8-3.5-4.6-3.5c-1.6,0-3.7,0.7-3.7,2.6c0,4.5,14.5,1.3,14.5,10.8c0,5.9-5.3,8.1-10.4,8.1c-5.6,0-10.6-2.7-10.7-8.9h5.6
			c0.1,3,2.5,4.4,5.3,4.4C-84.6,459-81.9,458.3-81.9,456z"/>
		<path id="XMLID_204_" class="st0" d="M-58.2,462.9h-14.6v-25.2h14.6v5h-9v5h8.7v5h-8.7v5.1h9V462.9z"/>
		<path id="XMLID_206_" class="st0" d="M-48.2,462.9h-5.5v-25.2h5.5v11.2l8-11.2h7.1l-9.7,12.6l10,12.6h-7.5l-8-11.2L-48.2,462.9
			L-48.2,462.9z"/>
		<path id="XMLID_208_" class="st0" d="M-20.3,462.9h-5.6v-20.1H-33v-5h19.9v5h-7.2V462.9z"/>
		<path id="XMLID_210_" class="st0" d="M-10.7,462.9v-25.2h5.6v25.2H-10.7z"/>
		<path id="XMLID_212_" class="st0" d="M11.3,463.3c-7,0-13-6-13-13s6-13,13-13s13,6,13,13S18.3,463.3,11.3,463.3z M11.3,442.9
			c-3.9,0-7.4,3.5-7.4,7.4c0,3.9,3.5,7.4,7.4,7.4s7.4-3.6,7.4-7.4C18.7,446.4,15.2,442.9,11.3,442.9z"/>
		<path id="XMLID_215_" class="st0" d="M42,462.9l-8.7-15.7v15.7h-5.6v-25.2h5.6l8.7,15.7v-15.7h5.6v25.2H42z"/>
		<path id="XMLID_217_" class="st0" d="M66.6,462.9H52v-25.2h14.6v5h-9v5h8.7v5h-8.7v5.1h9V462.9z"/>
		<path id="XMLID_219_" class="st0" d="M85.2,462.9l-8.7-15.7v15.7H71v-25.2h5.5l8.7,15.7v-15.7h5.5v25.2H85.2z"/>
		<path id="XMLID_221_" class="st0" d="M-164.7,478.9h1.6l2.7,6.9l2.6-6.9h1.6l-4.2,10.1L-164.7,478.9z"/>
		<path id="XMLID_223_" class="st0" d="M-152.6,476.3c0,0.3-0.1,0.5-0.3,0.7c-0.2,0.2-0.4,0.3-0.7,0.3c-0.3,0-0.5-0.1-0.7-0.3
			c-0.2-0.2-0.3-0.4-0.3-0.7s0.1-0.5,0.3-0.7c0.2-0.2,0.4-0.3,0.7-0.3c0.3,0,0.5,0.1,0.7,0.3C-152.7,475.8-152.6,476.1-152.6,476.3z
			 M-154.3,488.1v-9.2h1.5v9.2H-154.3z"/>
		<path id="XMLID_226_" class="st0" d="M-142.2,488.1v-1.6c-0.1,0.1-0.2,0.2-0.3,0.3c-0.9,1-1.9,1.5-3.2,1.5s-2.3-0.5-3.2-1.5
			c-0.8-1-1.3-2.1-1.3-3.4s0.4-2.4,1.3-3.4c0.9-1,1.9-1.5,3.2-1.5s2.4,0.5,3.2,1.5c0.1,0.1,0.2,0.2,0.3,0.3v-8.1h1.5v15.7h-1.5
			V488.1z M-143.1,481.1c-0.6-0.7-1.4-1-2.3-1c-0.9,0-1.7,0.3-2.3,1c-0.6,0.7-0.9,1.5-0.9,2.4s0.3,1.7,0.9,2.4c0.6,0.7,1.4,1,2.3,1
			c0.9,0,1.7-0.3,2.3-1c0.6-0.7,0.9-1.5,0.9-2.4S-142.5,481.8-143.1,481.1z"/>
		<path id="XMLID_230_" class="st0" d="M-125.4,486.6v1.5h-5.1h-0.7h-0.7v-14.3h1.5v12.8H-125.4z"/>
		<path id="XMLID_232_" class="st0" d="M-120.1,488.3c-1,0-1.8-0.3-2.4-1c-0.6-0.7-0.9-1.6-0.9-2.6v-5.8h1.5v5.8
			c0,0.6,0.1,1.1,0.4,1.5s0.7,0.6,1.4,0.6c1.1,0,2-0.4,2.4-1.1c0.5-0.7,0.7-1.7,0.7-3v-3.9h1.5v9.2h-1.5v-1.6
			C-117.7,487.7-118.7,488.3-120.1,488.3z"/>
		<path id="XMLID_235_" class="st0" d="M-112.7,488.1v-15.7h1.5v15.7H-112.7z"/>
		<path id="XMLID_237_" class="st0" d="M-99,484h-8.1c0.1,0.8,0.5,1.4,1.2,2c0.6,0.5,1.4,0.8,2.1,0.8c0.5,0,1-0.1,1.5-0.4
			c0.5-0.2,0.9-0.6,1.2-1h1.7c-0.4,0.9-1,1.6-1.8,2.1s-1.6,0.8-2.4,0.8s-1.5-0.1-2.1-0.4s-1.1-0.6-1.5-1c-0.9-0.9-1.4-2.1-1.4-3.4
			c0-1.3,0.5-2.5,1.4-3.4c0.9-0.9,2.1-1.4,3.4-1.4s2.4,0.5,3.4,1.4c1,0.9,1.5,2,1.5,3.3L-99,484L-99,484z M-101.8,480.8
			c-0.6-0.5-1.3-0.8-2.1-0.8c-1.2,0-2.1,0.5-2.8,1.6c-0.2,0.3-0.4,0.7-0.4,1.1h6.6C-100.7,482-101.1,481.3-101.8,480.8z"/>
		<path id="XMLID_241_" class="st0" d="M-89.3,488.1v-1.6c-0.1,0.1-0.2,0.2-0.3,0.3c-0.9,1-1.9,1.5-3.2,1.5c-1.3,0-2.3-0.5-3.2-1.5
			c-0.8-1-1.3-2.1-1.3-3.4s0.4-2.4,1.3-3.4s1.9-1.5,3.2-1.5c1.3,0,2.4,0.5,3.2,1.5c0.1,0.1,0.2,0.2,0.3,0.3v-1.6h1.5v9.2h-1.5V488.1
			z M-90.2,481.1c-0.6-0.7-1.4-1-2.3-1s-1.7,0.3-2.3,1c-0.6,0.7-0.9,1.5-0.9,2.4s0.3,1.7,0.9,2.4s1.4,1,2.3,1s1.7-0.3,2.3-1
			c0.6-0.7,0.9-1.5,0.9-2.4S-89.6,481.8-90.2,481.1z M-94.3,474.2c0.4-0.4,0.9-0.6,1.4-0.6s1,0.2,1.4,0.6c0.4,0.4,0.6,0.9,0.6,1.4
			c0,0.6-0.2,1-0.6,1.4s-0.9,0.6-1.4,0.6s-1-0.2-1.4-0.6c-0.4-0.4-0.6-0.9-0.6-1.4C-94.9,475-94.7,474.5-94.3,474.2z M-93.7,475.6
			c0,0.2,0.1,0.4,0.3,0.6s0.4,0.3,0.7,0.3s0.5-0.1,0.6-0.3s0.3-0.4,0.3-0.6c0-0.2-0.1-0.4-0.3-0.6c-0.2-0.2-0.4-0.3-0.6-0.3
			s-0.5,0.1-0.6,0.3S-93.7,475.3-93.7,475.6z"/>
		<path id="XMLID_247_" class="st0" d="M-80.1,478.9h2.3v-3.6h1.5v3.6h2.3v1.4h-2.3v7.9h-1.5v-8h-2.3
			C-80.1,480.2-80.1,478.9-80.1,478.9z"/>
		<path id="XMLID_249_" class="st0" d="M-63,484h-8.1c0.1,0.8,0.5,1.4,1.2,2c0.6,0.5,1.4,0.8,2.1,0.8c0.5,0,1-0.1,1.5-0.4
			c0.5-0.2,0.9-0.6,1.2-1h1.7c-0.4,0.9-1,1.6-1.8,2.1s-1.6,0.8-2.4,0.8s-1.5-0.1-2.1-0.4s-1.1-0.6-1.5-1c-0.9-0.9-1.4-2.1-1.4-3.4
			c0-1.3,0.5-2.5,1.4-3.4c0.9-0.9,2.1-1.4,3.4-1.4s2.4,0.5,3.4,1.4c1,0.9,1.5,2,1.5,3.3L-63,484L-63,484z M-65.8,480.8
			c-0.6-0.5-1.3-0.8-2.1-0.8c-1.2,0-2.1,0.5-2.8,1.6c-0.2,0.3-0.4,0.7-0.4,1.1h6.6C-64.7,482-65.1,481.3-65.8,480.8z"/>
		<path id="XMLID_283_" class="st0" d="M-60.6,488.1v-15.7h1.5V483l3.4-4.2h2l-3.8,4.5l4.1,4.8h-2l-3.6-4.4v4.4L-60.6,488.1
			L-60.6,488.1z"/>
		<path id="XMLID_285_" class="st0" d="M-45.4,482.3c0-0.6-0.1-1.1-0.4-1.5s-0.7-0.6-1.4-0.6c-0.6,0-1.1,0.1-1.5,0.4s-0.7,0.5-1,0.9
			c-0.4,0.7-0.7,1.6-0.7,2.8v3.9h-1.5V479h1.5v1.6c0.3-0.5,0.7-0.9,1.2-1.3c0.5-0.3,1.1-0.5,1.7-0.5s1.2,0.1,1.6,0.3s0.7,0.4,1,0.8
			c0.6,0.7,0.8,1.5,0.8,2.6v5.8h-1.5v-6H-45.4z"/>
		<path id="XMLID_288_" class="st0" d="M-39.3,476.3c0,0.3-0.1,0.5-0.3,0.7c-0.2,0.2-0.4,0.3-0.7,0.3s-0.5-0.1-0.7-0.3
			c-0.2-0.2-0.3-0.4-0.3-0.7s0.1-0.5,0.3-0.7c0.2-0.2,0.4-0.3,0.7-0.3s0.5,0.1,0.7,0.3C-39.4,475.8-39.3,476.1-39.3,476.3z
			 M-41,488.1v-9.2h1.5v9.2H-41z"/>
		<path id="XMLID_340_" class="st0" d="M-33.5,487.1c1.3,0,2-0.5,2-1.5c0-0.6-0.5-1-1.4-1.3c-0.4-0.1-0.8-0.3-1.3-0.4
			c-0.5-0.1-0.9-0.3-1.3-0.5c-0.5-0.2-0.8-0.5-1.1-0.8c-0.2-0.3-0.4-0.7-0.4-1.2c0-0.9,0.3-1.6,1-2.1c0.6-0.5,1.4-0.7,2.3-0.7
			c0.9,0,1.6,0.2,2.2,0.6c0.6,0.4,1,1,1.2,1.9h-1.6c-0.2-0.5-0.4-0.9-0.7-1c-0.3-0.2-0.7-0.3-1.2-0.3s-0.9,0.1-1.2,0.3
			s-0.5,0.5-0.5,0.9s0.1,0.7,0.4,0.9c0.3,0.2,0.6,0.4,1,0.5s0.8,0.2,1.3,0.3c0.5,0.1,0.9,0.3,1.3,0.5c1,0.5,1.4,1.2,1.4,2.2
			s-0.4,1.7-1.1,2.2c-0.4,0.2-0.8,0.4-1.2,0.5c-0.4,0.1-0.9,0.2-1.4,0.2c-2.1,0-3.4-1-3.7-2.9h1.6c0.2,0.6,0.4,1,0.8,1.3
			C-34.6,487-34.1,487.1-33.5,487.1z"/>
		<path id="XMLID_342_" class="st0" d="M-27.8,488.1v-15.7h1.5V483l3.4-4.2h2l-3.8,4.5l4.1,4.8h-2l-3.6-4.4v4.4L-27.8,488.1
			L-27.8,488.1z"/>
		<path id="XMLID_344_" class="st0" d="M-11.6,488.1v-1.6c-0.1,0.1-0.2,0.2-0.3,0.3c-0.9,1-1.9,1.5-3.2,1.5s-2.4-0.5-3.2-1.5
			s-1.3-2.1-1.3-3.4s0.4-2.4,1.3-3.4c0.9-1,1.9-1.5,3.2-1.5s2.3,0.5,3.2,1.5c0.1,0.1,0.2,0.2,0.3,0.3v-1.6h1.5v9.2h-1.5V488.1z
			 M-12.6,481.1c-0.6-0.7-1.4-1-2.3-1s-1.7,0.3-2.3,1s-0.9,1.5-0.9,2.4s0.3,1.7,0.9,2.4c0.6,0.7,1.4,1,2.3,1s1.7-0.3,2.3-1
			s0.9-1.5,0.9-2.4S-11.9,481.8-12.6,481.1z"/>
		<path id="XMLID_347_" class="st0" d="M1.9,488.3c-1,0-1.8-0.3-2.4-1c-0.6-0.7-0.9-1.6-0.9-2.6v-5.8h1.5v5.8c0,0.6,0.1,1.1,0.4,1.5
			c0.3,0.4,0.7,0.6,1.4,0.6c1.1,0,2-0.4,2.4-1.1c0.5-0.7,0.7-1.7,0.7-3v-3.9h1.5v9.2H5v-1.6C4.3,487.7,3.3,488.3,1.9,488.3z"/>
		<path id="XMLID_349_" class="st0" d="M15.7,482.3c0-0.6-0.1-1.1-0.4-1.5c-0.3-0.4-0.7-0.6-1.4-0.6c-0.6,0-1.1,0.1-1.5,0.4
			s-0.7,0.5-1,0.9c-0.4,0.7-0.7,1.6-0.7,2.8v3.9H9.2V479h1.5v1.6c0.3-0.5,0.7-0.9,1.2-1.3c0.5-0.3,1.1-0.5,1.7-0.5s1.2,0.1,1.6,0.3
			c0.4,0.2,0.7,0.4,1,0.8c0.6,0.7,0.8,1.5,0.8,2.6v5.8h-1.5v-6H15.7z"/>
		<path id="XMLID_351_" class="st0" d="M21.8,476.3c0,0.3-0.1,0.5-0.3,0.7c-0.2,0.2-0.4,0.3-0.7,0.3s-0.5-0.1-0.7-0.3
			c-0.2-0.2-0.3-0.4-0.3-0.7s0.1-0.5,0.3-0.7c0.2-0.2,0.4-0.3,0.7-0.3s0.5,0.1,0.7,0.3C21.7,475.8,21.8,476.1,21.8,476.3z
			 M20.1,488.1v-9.2h1.5v9.2H20.1z"/>
		<path id="XMLID_354_" class="st0" d="M23.5,478.9h1.6l2.7,6.9l2.6-6.9H32L27.8,489L23.5,478.9z"/>
		<path id="XMLID_356_" class="st0" d="M42.8,484h-8.1c0.1,0.8,0.5,1.4,1.2,2c0.6,0.5,1.4,0.8,2.1,0.8c0.5,0,1-0.1,1.5-0.4
			c0.5-0.2,0.9-0.6,1.2-1h1.7c-0.4,0.9-1,1.6-1.8,2.1s-1.6,0.8-2.4,0.8c-0.8,0-1.5-0.1-2.1-0.4s-1.1-0.6-1.5-1
			c-0.9-0.9-1.4-2.1-1.4-3.4c0-1.3,0.5-2.5,1.4-3.4c0.9-0.9,2.1-1.4,3.4-1.4c1.3,0,2.4,0.5,3.4,1.4c1,0.9,1.5,2,1.5,3.3L42.8,484
			L42.8,484z M40.1,480.8c-0.6-0.5-1.3-0.8-2.1-0.8c-1.2,0-2.1,0.5-2.8,1.6c-0.2,0.3-0.4,0.7-0.4,1.1h6.6
			C41.1,482,40.7,481.3,40.1,480.8z"/>
		<path id="XMLID_359_" class="st0" d="M48.9,480.3c-0.4,0-0.7,0.1-1,0.3c-0.3,0.2-0.5,0.5-0.7,0.8c-0.3,0.6-0.5,1.3-0.5,2v4.6h-1.5
			v-9.2h1.5v1.9l0.1-0.4c0.5-1.1,1.3-1.7,2.3-1.7c0.3,0,0.6,0.1,0.9,0.2v1.9C49.6,480.5,49.3,480.3,48.9,480.3z"/>
		<path id="XMLID_361_" class="st0" d="M54.5,487.1c1.3,0,2-0.5,2-1.5c0-0.6-0.5-1-1.4-1.3c-0.4-0.1-0.8-0.3-1.3-0.4
			c-0.5-0.1-0.9-0.3-1.3-0.5c-0.5-0.2-0.8-0.5-1.1-0.8c-0.2-0.3-0.4-0.7-0.4-1.2c0-0.9,0.3-1.6,1-2.1c0.6-0.5,1.4-0.7,2.3-0.7
			c0.9,0,1.6,0.2,2.2,0.6c0.6,0.4,1,1,1.2,1.9h-1.6c-0.2-0.5-0.4-0.9-0.7-1c-0.3-0.2-0.7-0.3-1.2-0.3s-0.9,0.1-1.2,0.3
			s-0.5,0.5-0.5,0.9s0.1,0.7,0.4,0.9c0.3,0.2,0.6,0.4,1,0.5s0.8,0.2,1.3,0.3c0.5,0.1,0.9,0.3,1.3,0.5c1,0.5,1.4,1.2,1.4,2.2
			s-0.4,1.7-1.1,2.2c-0.4,0.2-0.8,0.4-1.2,0.5c-0.4,0.1-0.9,0.2-1.4,0.2c-2.1,0-3.4-1-3.7-2.9h1.6c0.2,0.6,0.4,1,0.8,1.3
			C53.4,487,53.9,487.1,54.5,487.1z"/>
		<path id="XMLID_363_" class="st0" d="M61.9,476.3c0,0.3-0.1,0.5-0.3,0.7c-0.2,0.2-0.4,0.3-0.7,0.3s-0.5-0.1-0.7-0.3
			c-0.2-0.2-0.3-0.4-0.3-0.7s0.1-0.5,0.3-0.7c0.2-0.2,0.4-0.3,0.7-0.3s0.5,0.1,0.7,0.3C61.8,475.8,61.9,476.1,61.9,476.3z
			 M60.3,488.1v-9.2h1.5v9.2H60.3z"/>
		<path id="XMLID_366_" class="st0" d="M63.8,478.9h2.3v-3.6h1.5v3.6h2.3v1.4h-2.3v7.9h-1.5v-8h-2.3V478.9z"/>
		<path id="XMLID_368_" class="st0" d="M80.9,484h-8.1c0.1,0.8,0.5,1.4,1.2,2c0.6,0.5,1.4,0.8,2.1,0.8c0.5,0,1-0.1,1.5-0.4
			c0.5-0.2,0.9-0.6,1.2-1h1.7c-0.4,0.9-1,1.6-1.8,2.1s-1.6,0.8-2.4,0.8c-0.8,0-1.5-0.1-2.1-0.4s-1.1-0.6-1.5-1
			c-0.9-0.9-1.4-2.1-1.4-3.4c0-1.3,0.5-2.5,1.4-3.4c0.9-0.9,2.1-1.4,3.4-1.4c1.3,0,2.4,0.5,3.4,1.4c1,0.9,1.5,2,1.5,3.3L80.9,484
			L80.9,484z M78.2,480.8c-0.6-0.5-1.3-0.8-2.1-0.8c-1.2,0-2.1,0.5-2.8,1.6c-0.2,0.3-0.4,0.7-0.4,1.1h6.6
			C79.2,482,78.8,481.3,78.2,480.8z"/>
		<path id="XMLID_371_" class="st0" d="M82.2,478.9h2.3v-3.6H86v3.6h2.3v1.4H86v7.9h-1.5v-8h-2.3V478.9z"/>
	</g>
	<g id="XMLID_480_">
		<g id="XMLID_91_">
			<path id="XMLID_95_" class="st0" d="M-9.9,410.7c0-0.1,0-0.1,0-0.2c-0.3-1.3-1.8-2.2-3.1-1.7c-1.3,0.4-2.1,1.7-1.7,3.1
				c0,0.1,0,0.1,0,0.2c0.3,1.3,1.8,2.2,3.1,1.7C-10.3,413.3-9.6,412-9.9,410.7L-9.9,410.7c-0.3-1.3-1.8-2.1-3.1-1.7
				c-1.3,0.4-2.1,1.7-1.7,3.1l0,0C-13.1,411.5-11.5,411.1-9.9,410.7c0,0,0-0.1,0-0.2c-1.6,0.4-3.2,0.9-4.8,1.3c0,0.1,0,0.1,0,0.2
				c0.3,1.3,1.8,2.2,3.1,1.7C-10.3,413.3-9.5,412-9.9,410.7z"/>
		</g>
	</g>
	<g id="XMLID_479_">
		<g id="XMLID_85_">
			<path id="XMLID_89_" class="st0" d="M-9.9,410.7L-9.9,410.7c-0.3-1.3-1.8-2.2-3.1-1.8c-1.4,0.4-2,1.7-1.7,3.1
				c0,0.2,0.1,0.4,0.1,0.6c0.2,1.3,1.9,2.1,3.1,1.7c1.4-0.4,2-1.7,1.7-3.1C-9.8,411.1-9.8,410.9-9.9,410.7c-0.2-1.3-1.9-2.1-3.1-1.7
				c-1.4,0.4-2,1.7-1.7,3.1c0,0.2,0.1,0.4,0.1,0.6c1.6-0.4,3.2-0.9,4.8-1.3C-9.8,411.1-9.8,410.9-9.9,410.7
				c-1.6,0.4-3.2,0.9-4.8,1.3l0,0c0.3,1.3,1.8,2.2,3.1,1.7C-10.3,413.4-9.5,412.1-9.9,410.7z"/>
		</g>
	</g>
	<g id="XMLID_478_">
		<g id="XMLID_79_">
			<path id="XMLID_83_" class="st0" d="M-9.2,414.4c0-0.2-0.1-0.4-0.1-0.6c-0.1-0.6-0.7-1.2-1.1-1.5c-0.5-0.3-1.3-0.4-1.9-0.3
				c-0.6,0.2-1.2,0.6-1.5,1.1c-0.3,0.6-0.4,1.2-0.3,1.9c0,0.2,0.1,0.4,0.1,0.7c0.1,0.6,0.7,1.2,1.1,1.5c0.5,0.3,1,0.4,1.6,0.3
				c1.1-0.2,2.3-1.2,2.2-2.5l0,0c-0.1-1.3-1.1-2.6-2.5-2.5c-1.3,0.1-2.6,1.1-2.5,2.5l0,0C-12.5,414.8-10.9,414.6-9.2,414.4
				c0-0.2-0.1-0.4-0.1-0.6c-1.6,0.4-3.2,0.9-4.8,1.3c0,0.2,0.1,0.4,0.1,0.6c0.1,0.6,0.7,1.2,1.1,1.5c0.5,0.3,1.3,0.4,1.9,0.3
				c0.6-0.2,1.2-0.6,1.5-1.1C-9.2,415.7-9.1,415.1-9.2,414.4z"/>
		</g>
	</g>
	<g id="XMLID_477_">
		<g id="XMLID_73_">
			<path id="XMLID_77_" class="st0" d="M-9.1,415.1L-9.1,415.1c-0.1-0.7-0.2-1.3-0.7-1.8c-0.4-0.4-1.1-0.8-1.8-0.7
				c-1.3,0.1-2.6,1.1-2.5,2.5c0,0.2,0,0.4,0,0.6c0,1.3,1.1,2.6,2.5,2.5c1.3-0.1,2.5-1.1,2.5-2.5C-9.1,415.5-9.1,415.3-9.1,415.1
				c-0.1-1.3-1.1-2.6-2.5-2.5c-1.3,0.1-2.6,1.1-2.5,2.5c0,0.2,0,0.4,0,0.6c1.7,0,3.3,0,5,0C-9.1,415.5-9.1,415.3-9.1,415.1
				c-1.7,0-3.3,0-5,0l0,0c0.1,0.7,0.2,1.3,0.7,1.8c0.4,0.4,1.1,0.8,1.8,0.7C-10.4,417.6-9,416.5-9.1,415.1z"/>
		</g>
	</g>
	<g id="XMLID_471_">
		<g id="XMLID_37_">
			<path id="XMLID_41_" class="st0" d="M-9.9,410.7L-9.9,410.7c-0.3-1.3-1.8-2.2-3.1-1.8c-1.3,0.4-2.1,1.7-1.7,3.1l0,0
				c0.3,1.3,1.8,2.1,3.1,1.7C-10.2,413.3-9.6,412.1-9.9,410.7L-9.9,410.7c-0.2-1.3-1.9-2.1-3.1-1.7c-1.4,0.4-2,1.7-1.7,3.1l0,0
				C-13.1,411.6-11.5,411.1-9.9,410.7L-9.9,410.7c-1.6,0.4-3.2,0.9-4.8,1.3l0,0c0.3,1.3,1.8,2.2,3.1,1.7
				C-10.3,413.3-9.5,412-9.9,410.7z"/>
		</g>
	</g>
	<g id="XMLID_470_">
		<g id="XMLID_31_">
			<path id="XMLID_35_" class="st0" d="M-9.2,414.4L-9.2,414.4c-0.1-0.6-0.7-1.3-1.2-1.5c-0.5-0.3-1-0.4-1.6-0.3
				c-1.1,0.2-2.3,1.2-2.2,2.5c0,0,0,0,0,0.1c0.1,0.7,0.2,1.3,0.7,1.8c0.4,0.4,1.1,0.8,1.8,0.7c1.3-0.1,2.5-1.1,2.5-2.5l0,0
				c0-1.3-1.1-2.6-2.5-2.5c-1.3,0.1-2.5,1.1-2.5,2.5l0,0c1.7,0,3.3,0,5,0c0,0,0,0,0-0.1c-1.6,0.2-3.3,0.4-4.9,0.7l0,0
				c0.1,0.6,0.7,1.2,1.1,1.5c0.5,0.3,1.3,0.4,1.9,0.3c0.6-0.2,1.2-0.6,1.5-1.1C-9.2,415.7-9.1,415.1-9.2,414.4z"/>
		</g>
	</g>
	<g id="XMLID_468_">
		<g id="XMLID_25_">
			<path id="XMLID_29_" class="st0" d="M3.8,399.9c0-0.1-0.1-0.1-0.1-0.2c-0.4-0.5-1.2-0.7-1.8-0.7s-1.3,0.3-1.8,0.7
				c-0.4,0.5-0.8,1.1-0.7,1.8c0,0.7,0.3,1.2,0.7,1.8c0.6,0.8,1.2,1.5,2,2.1c0.7,0.5,1.2,0.8,2.1,0.7c0.8-0.1,1.3-0.5,1.8-1.2
				l0.1-0.1c0.3-0.5,0.4-1.4,0.3-1.9c-0.2-0.7-0.6-1.1-1.1-1.5c-0.1-0.1-0.2-0.1-0.3-0.2c0.3,0.2,0.3,0.3,0.1,0.1
				c-0.1-0.1-0.3-0.3-0.4-0.4C4.3,400.5,4,400.2,3.8,399.9c-0.4-0.5-1.2-0.7-1.8-0.7s-1.3,0.3-1.8,0.7c-0.4,0.5-0.8,1.1-0.7,1.8
				c0,0.7,0.3,1.2,0.7,1.8c0.7,0.9,1.5,1.6,2.4,2.2c-0.3-1.1-0.6-2.3-0.9-3.4l-0.1,0.1c1.3-0.2,2.6-0.3,3.9-0.5
				c-0.8-0.6-1.4-1.3-2-2.1c-1.2,1.2-2.4,2.4-3.5,3.5c0,0.1,0.1,0.1,0.1,0.2c0.4,0.5,1.2,0.7,1.8,0.7s1.3-0.3,1.8-0.7
				c0.4-0.5,0.8-1.1,0.7-1.8C4.5,401,4.2,400.5,3.8,399.9z"/>
		</g>
	</g>
	<g id="XMLID_7_">
		<path id="XMLID_36_" class="st0" d="M18.4,367.3v-0.1c0-0.6,0-1.2,0-1.8c0-0.1,0-0.1,0-0.2c-1.2-27.3-19.7-51.4-46.2-58.7
			c-27.9-7.7-57.4,5-71.8,29.7c-10-1.5-19.4-0.8-29.2,3.5c-1.9,0.8-1.5,4.3,0.6,4.6c7.8,1.1,15.5,3,22.7,6
			c-7.3,27,3.7,56.1,27.8,70.9c3.1,1.9,6.3,3.5,9.7,4.8c0.2,0.1,0.4,0.2,0.6,0.3c11,4.1,22.8,5.3,34.4,3.1c5.4-1,10.6-2.7,15.5-5
			c2.1-1,5.2-2.1,7-3.9h0.1c1.4-1,2.8-2,4.1-3c0,0,0.1,0,0.1-0.1c0.3-0.2,0.5-0.4,0.8-0.6c1.1-0.8,2.1-1.7,3.2-2.6
			c2.3-2.1,4.4-4.3,6.4-6.7c0.7-0.8,1.3-1.6,2-2.5c0,0,0,0,0-0.1c0,0,0,0,0-0.1c6.7-9.2,10.6-19.6,11.9-30.9c0-0.1,0-0.2,0-0.2l0,0
			c0.2-2,0.3-4.1,0.3-6.1C18.4,367.4,18.4,367.4,18.4,367.3L18.4,367.3z M-3.2,394.7C-3.3,394.7-3.3,394.7-3.2,394.7
			c-0.2-0.1-0.3-0.1-0.5-0.2c-0.3-0.1-0.5-0.2-0.8-0.3c-0.6-0.2-1.6-0.5-2.9-0.7c-4.5-1-11.1-1.9-14.7-0.5c-0.2-0.2-0.4-0.4-0.6-0.6
			c0,0,0,0,0.1,0c0.2-0.1,0.4-0.3,0.7-0.5c0.2-0.1,0.4-0.2,0.6-0.4c0.1-0.1,0.3-0.2,0.4-0.3c0.3-0.2,0.6-0.4,0.8-0.6
			c0.4-0.3,0.8-0.7,1.3-1c0.2-0.2,0.4-0.3,0.5-0.5c0.5-0.5,1-1,1.5-1.5c0.1-0.1,0.1-0.1,0.2-0.2c0.5-0.6,1-1.2,1.5-1.8l0.1-0.1
			c0,0,0,0,0-0.1c0.1-0.1,0.2-0.3,0.3-0.4c0.6-0.8,1.1-1.7,1.6-2.6v-0.1c1.3-2.2,2.6-4.3,4.3-6c5.7-5.1,13.6-4.1,20.5-1.3h0.1
			c0.3,0.1,0.7,0.3,1,0.4l0,0c-1.3,8.8-4.5,17.1-9.4,24.2C1.5,397.4-0.6,395.8-3.2,394.7z M-10.6,408.3c-0.6-1.8-1.5-3.6-2.6-5.2
			c-1.2-1.8-2.9-3.8-4.6-5.2c0-0.1-0.1-0.1-0.1-0.2c1,0,2.4-0.2,3.2-0.2c0.4,0,0.8,0,1.2,0.1c0.2,0,0.4,0,0.5,0c0.5,0,1,0.1,1.5,0.2
			c0.2,0,0.3,0,0.5,0.1c0.5,0.1,1,0.2,1.5,0.3c0.1,0,0.3,0.1,0.4,0.1c0.5,0.1,1,0.2,1.5,0.4c0.4,0.1,0.9,0.2,1.3,0.4
			c2.9,1,4.8,2.5,6.6,4.8c-2.8,3.5-6.1,6.7-9.6,9.5C-9.5,411.4-9.9,409.8-10.6,408.3z M-58.4,398.2c0.5,0.1,1,0.3,1.5,0.4h0.1
			c1.2,0.3,2.5,0.5,3.8,0.7c0.5,0.1,1,0.1,1.5,0.2c0.1,0,0.1,0,0.2,0c3.8,0.4,7.7,0.1,11.5-0.6c0.1,0,0.1,0,0.2,0
			c0.1,0,0.2,0,0.3-0.1c0.1,0,0.3-0.1,0.4-0.1c0.7-0.1,1.4-0.3,2.1-0.4c0.1,0,0.1,0,0.2-0.1c0.7-0.2,1.4-0.4,2.1-0.6
			c0.2-0.1,0.5-0.2,0.7-0.2c0.5-0.2,1-0.3,1.6-0.5c0.4-0.1,0.8-0.3,1.2-0.5c0.3-0.1,0.7-0.3,1-0.4c0.5-0.2,1-0.4,1.5-0.7
			c0.2-0.1,0.5-0.2,0.7-0.3c0.2-0.1,0.3-0.1,0.5-0.2c0.2,0.3,0.5,0.6,0.7,0.8c0,0.1,0.1,0.1,0.1,0.2c0.8,0.8,1.5,1.7,2.3,2.5v0.1
			c1.1,2.1,3,3.5,4.7,5.2c1.6,2,3,4.1,3.9,6.4c0,0.1,0.1,0.2,0.1,0.3c0.3,0.8,0.5,1.7,0.6,2.5c0.1,0.6,0.4,3.5,0.4,2.2
			c0,0.4,0,1,0,1.5c-0.7,0.4-1.4,0.9-2.1,1.3c-0.2,0.1-0.5,0.3-0.7,0.4c-5.3,3-11.2,5.1-17.4,6.2c-10,1.8-20.1,0.9-29.4-2.4
			c2.2-8.3,2.8-16.7,1.7-25.2C-60.8,397.4-59.5,397.8-58.4,398.2z M-29.2,311.3c22.2,6.2,38.3,25.1,41.8,47.3
			c-4.5-4.5-9.3-8.8-14.7-12c-7.4-4.4-16.3-7.3-24.8-8.7c-9.1-1.5-18.3-0.9-27.4-0.2c-1.2,0.1-2.4,0.2-3.6,0.3
			c-1.1,0.1-2.2,0.2-3.3,0.4c-5.1,0.7-10.2,1.6-15.4,1.4c-6.2-0.3-11.9-1.6-17.8-2.9C-80.7,315.3-54.3,304.3-29.2,311.3z M-91.5,343
			c3.1,0.7,6.1,1.2,9.1,1.4c1.9,0.3,3.9,0.4,5.8,0.5c5.6,0.1,10.9-1,16.4-1.6c4.3-0.5,8.7-0.9,13-1.2c10.3-0.5,20.7,0.2,30.6,3.5
			c2.9,1,5.8,2.1,8.6,3.5c0.8,0.4,1.6,0.8,2.3,1.2c0.2,0.1,0.4,0.2,0.6,0.4c0.5,0.3,0.9,0.6,1.4,0.9c0.4,0.2,0.7,0.4,1,0.7
			c3,2,5.7,4.5,8.3,6.9c0.4,0.4,0.9,0.8,1.5,1.3c2,1.9,3.9,3.8,5.7,5.7c0.1,0.3,0.2,0.7,0.2,1c0,0.1,0,0.2,0,0.3c0,0.3,0,0.6,0,0.9
			c0,0.1,0,0.2,0,0.3c0,0.5,0,1,0,1.5c-0.2-0.1-0.4-0.2-0.6-0.3c-0.1,0-0.1-0.1-0.2-0.1c-0.4-0.2-0.8-0.3-1.2-0.4h-0.1
			c-3.8-1.3-7.8-2.1-11.7-1.9c0,0,0,0-0.1,0c-0.5,0-0.9,0.1-1.4,0.2h-0.1c-0.5,0.1-0.9,0.1-1.3,0.2c-0.1,0-0.1,0-0.2,0
			c-0.2,0-0.4,0.1-0.6,0.2c-0.1,0-0.1,0-0.2,0.1c-0.2,0-0.3,0.1-0.5,0.1c-0.1,0-0.1,0-0.2,0.1c-0.1,0-0.2,0.1-0.3,0.1
			c-0.2,0.1-0.4,0.1-0.6,0.2c0,0,0,0-0.1,0s-0.2,0.1-0.2,0.1l0,0h-0.1c-0.1,0-0.2,0.1-0.2,0.1c-0.7,0.3-1.5,0.6-2.2,1.1
			c-0.7,0.4-1.3,0.9-1.9,1.3c0,0,0,0-0.1,0c-0.3,0.2-0.6,0.5-0.9,0.7c-0.2,0.1-0.3,0.3-0.5,0.4c-0.1,0.1-0.3,0.3-0.4,0.4
			c-0.2,0.2-0.3,0.3-0.4,0.5c-0.2,0.2-0.3,0.3-0.5,0.5c-0.1,0.1-0.2,0.2-0.3,0.4s-0.3,0.3-0.4,0.5l-0.1,0.1l-0.1,0.1
			c-0.1,0.1-0.2,0.2-0.2,0.3c-0.3,0.4-0.5,0.7-0.8,1.1l-0.1,0.1c-0.2,0.4-0.5,0.8-0.7,1.2c-0.1,0.1-0.3,0.3-0.4,0.5
			c-0.3,0.5-0.6,1-0.8,1.5l0,0c-1.6,2.8-3.8,5.2-6.2,7.1c-1.2,0.9-2.4,1.7-3.8,2.5c-0.2,0.1-0.4,0.2-0.7,0.4
			c-3.2,1.7-6.8,3-10.4,3.9c-0.2,0.1-0.5,0.1-0.7,0.2c-0.4,0.1-0.8,0.2-1.2,0.2c-0.4,0.1-0.8,0.2-1.2,0.2c-0.2,0-0.5,0.1-0.7,0.1
			c-2.7,0.3-5.3,0.4-8,0.2c-4-0.3-7.9-1.4-11.4-3.3c-0.1-0.1-0.1-0.1-0.2-0.2s-0.1-0.1-0.2-0.2c-0.1-0.1-0.1-0.1-0.2-0.2
			c-1.8-2.1-2.1-5.8-3.1-8.3c0-0.1-0.1-0.2-0.1-0.3s-0.1-0.2-0.1-0.4c-0.2-0.4-0.3-0.7-0.5-1.1c-0.1-0.2-0.2-0.4-0.3-0.6
			c-1.2-2.7-2.6-5.4-4.1-7.9c-6-9.6-14.7-17.8-24.8-23c-6.8-3.6-14.1-6.2-21.6-7.9C-108.7,339.6-100.5,340.9-91.5,343z M-96.2,394.4
			c-6.9-13-8.3-28-4.7-42.1c11.6,5.6,21.4,14,27.7,25.5c0,0.1,0.1,0.1,0.1,0.2c0.3,0.5,0.6,1.1,0.8,1.7c0.1,0.2,0.2,0.5,0.3,0.7
			c0.2,0.4,0.4,0.9,0.6,1.3c0.2,0.5,0.5,1.1,0.7,1.6c0.2,0.4,0.3,0.8,0.5,1.1c0.3,0.9,0.7,1.8,1,2.7c0.6,1.7,0.7,4.2,1.6,5.7l0,0
			c1.9,9.2,1.6,18.4-0.7,27.5C-80.1,415.1-90.1,406.1-96.2,394.4z"/>
		<path id="XMLID_53_" class="st0" d="M-40.7,370.9c3.6,0.1,6.4-2.6,6.9-6c0.1-0.2,0.1-0.5,0.1-0.8c0-0.3,0-0.6-0.1-0.8
			c-0.5-3.3-3.1-6-6.7-6c-3.7,0-6.8,3.1-6.8,6.8C-47.3,367.8-44.3,370.8-40.7,370.9z M-38.7,364.2c-0.1,2.3-3.6,2.3-3.6,0
			C-42.3,361.8-38.8,361.9-38.7,364.2z"/>
	</g>
</g>
</svg>
