<?xml version="1.0" encoding="utf-8"?>
<!-- Generator: Adobe Illustrator 19.0.0, SVG Export Plug-In . SVG Version: 6.00 Build 0)  -->
<svg version="1.1" id="Layer_1" xmlns="http://www.w3.org/2000/svg" xmlns:xlink="http://www.w3.org/1999/xlink" x="0px" y="0px"
	 viewBox="22 322.3 656.2 149.7" style="enable-background:new 22 322.3 656.2 149.7;" xml:space="preserve">
<style type="text/css">
	.st0{fill:#FFFFFF;}
</style>
<g id="XMLID_43_">
	<path id="XMLID_46_" class="st0" d="M216.2,383.2c0,7.6,6,14,13.1,14c4.4,0,9.9-1.4,12.4-8.2h-11.5v-7.5h22.2v1.5
		c0,12.8-10.3,23.2-23.1,23.2c-12.7,0-23.2-10.5-23.2-23.2s10.5-23.2,23.2-23.2c9.9,0,18.9,6.5,22,15.8h-10.9
		c-2.2-4.8-6.7-6.6-11.1-6.6C222.1,369.1,216.2,375.5,216.2,383.2z"/>
	<path id="XMLID_55_" class="st0" d="M284.8,405.5h-26.1v-45h26.1v9h-16.2v8.9h15.5v9h-15.5v9.1h16.2V405.5z"/>
	<path id="XMLID_57_" class="st0" d="M314.2,406.2c-12.5,0-23.2-10.7-23.2-23.2s10.7-23.2,23.2-23.2c12.4,0,23.2,10.7,23.2,23.2
		C337.4,395.5,326.7,406.2,314.2,406.2z M314.2,369.7c-7,0-13.2,6.3-13.2,13.2c0,7,6.3,13.3,13.2,13.3c7,0,13.2-6.4,13.2-13.3
		C327.5,376,321.2,369.7,314.2,369.7z"/>
	<path id="XMLID_61_" class="st0" d="M369.2,393.2c0-8.7-26-3.1-26-19.7c0-9.3,8.6-13.6,16.8-13.6c9.3,0,17.6,4.1,17.9,14.4h-9.6
		c-0.5-4.7-3.2-6.2-8.2-6.2c-2.8,0-6.7,1.3-6.7,4.7c0,8,26,2.3,26,19.4c0,10.6-9.5,14.5-18.7,14.5c-9.9,0-19-4.9-19.1-15.9h10.1
		c0.3,5.4,4.5,7.8,9.4,7.8C364.3,398.5,369.2,397.3,369.2,393.2z"/>
	<path id="XMLID_63_" class="st0" d="M411.5,405.5h-26.1v-45h26.1v9h-16.2v8.9h15.5v9h-15.5v9.1h16.2V405.5z"/>
	<path id="XMLID_65_" class="st0" d="M429.4,405.5h-9.9v-45h9.9v20.1l14.2-20.1h12.7L439,383l18,22.5h-13.4l-14.2-20.1V405.5z"/>
	<path id="XMLID_68_" class="st0" d="M479.5,405.5h-9.9v-36h-12.8v-9h35.6v9h-12.8v36H479.5z"/>
	<path id="XMLID_70_" class="st0" d="M496.6,405.5v-45h9.9v45H496.6z"/>
	<path id="XMLID_72_" class="st0" d="M536,406.2c-12.5,0-23.2-10.7-23.2-23.2s10.7-23.2,23.2-23.2s23.2,10.7,23.2,23.2
		S548.5,406.2,536,406.2z M536,369.7c-7,0-13.2,6.3-13.2,13.2c0,7,6.3,13.3,13.2,13.3c7,0,13.2-6.4,13.2-13.3
		C549.3,376,543,369.7,536,369.7z"/>
	<path id="XMLID_96_" class="st0" d="M590.9,405.5l-15.5-28.1v28.1h-9.9v-45h9.9l15.5,28.1v-28.1h9.9v45H590.9z"/>
	<path id="XMLID_98_" class="st0" d="M634.9,405.5h-26.1v-45h26.1v9h-16.2v8.9h15.5v9h-15.5v9.1h16.2V405.5z"/>
	<path id="XMLID_100_" class="st0" d="M668.3,405.5l-15.5-28.1v28.1h-9.9v-45h9.9l15.5,28.1v-28.1h9.9v45H668.3z"/>
	<path id="XMLID_102_" class="st0" d="M213.3,434.1h2.9l4.8,12.3l4.7-12.3h2.9l-7.6,18.1L213.3,434.1z"/>
	<path id="XMLID_104_" class="st0" d="M234.9,429.6c0,0.5-0.2,0.9-0.5,1.2s-0.7,0.5-1.2,0.5s-0.9-0.2-1.2-0.5s-0.5-0.7-0.5-1.2
		s0.2-0.9,0.5-1.2c0.3-0.3,0.7-0.5,1.2-0.5s0.9,0.2,1.2,0.5C234.7,428.7,234.9,429.1,234.9,429.6z M231.9,450.6v-16.5h2.6v16.5
		H231.9z"/>
	<path id="XMLID_107_" class="st0" d="M253.5,450.6v-2.8c-0.1,0.2-0.3,0.4-0.5,0.6c-1.6,1.8-3.5,2.6-5.8,2.6s-4.2-0.9-5.8-2.6
		c-1.5-1.7-2.3-3.7-2.3-6c0-2.3,0.8-4.3,2.3-6c1.6-1.8,3.5-2.6,5.8-2.6s4.2,0.9,5.8,2.6c0.2,0.2,0.3,0.4,0.5,0.6v-14.5h2.6v28.2
		h-2.6V450.6z M251.8,438.2c-1.1-1.2-2.5-1.8-4.2-1.8s-3,0.6-4.2,1.8c-1.1,1.2-1.7,2.6-1.7,4.2s0.6,3,1.7,4.2
		c1.1,1.2,2.5,1.8,4.2,1.8s3-0.6,4.2-1.8c1.1-1.2,1.7-2.6,1.7-4.2S252.9,439.4,251.8,438.2z"/>
	<path id="XMLID_110_" class="st0" d="M283.7,448v2.6h-9.1h-1.3H272V425h2.6v22.9h9.1V448z"/>
	<path id="XMLID_112_" class="st0" d="M293.1,451c-1.9,0-3.3-0.6-4.3-1.8s-1.6-2.8-1.6-4.7v-10.3h2.6v10.3c0,1.1,0.2,2,0.7,2.8
		s1.3,1.1,2.4,1.1c2.1,0,3.5-0.6,4.4-1.9c0.9-1.3,1.3-3.1,1.3-5.4v-6.9h2.6v16.5h-2.6v-2.8C297.4,449.9,295.6,451,293.1,451z"/>
	<path id="XMLID_114_" class="st0" d="M306.4,450.6v-28.2h2.6v28.2H306.4z"/>
	<path id="XMLID_116_" class="st0" d="M330.8,443.4h-14.5c0.3,1.4,0.9,2.6,2.1,3.5c1.1,0.9,2.4,1.4,3.8,1.4c1,0,1.9-0.2,2.7-0.7
		c0.9-0.4,1.6-1,2.2-1.8h3c-0.7,1.6-1.8,2.8-3.2,3.7c-1.4,0.9-2.9,1.4-4.3,1.4c-1.5,0-2.7-0.2-3.8-0.7c-1-0.5-2-1.1-2.7-1.8
		c-1.7-1.7-2.5-3.7-2.5-6.1c0-2.4,0.8-4.4,2.5-6.1s3.7-2.5,6.1-2.5c2.3,0,4.3,0.8,6,2.4c1.7,1.7,2.6,3.6,2.6,5.9L330.8,443.4
		L330.8,443.4z M325.9,437.6c-1.1-0.9-2.3-1.4-3.7-1.4c-2.1,0-3.8,1-5.1,2.9c-0.4,0.6-0.6,1.2-0.8,1.9H328
		C327.7,439.7,327,438.6,325.9,437.6z"/>
	<path id="XMLID_119_" class="st0" d="M348.3,450.6v-2.8c-0.1,0.2-0.3,0.4-0.5,0.6c-1.6,1.8-3.5,2.6-5.8,2.6s-4.2-0.9-5.8-2.6
		c-1.5-1.7-2.3-3.7-2.3-6c0-2.3,0.8-4.3,2.3-6c1.6-1.8,3.5-2.6,5.8-2.6s4.2,0.9,5.8,2.6c0.2,0.2,0.3,0.4,0.5,0.6v-2.8h2.6v16.5h-2.6
		V450.6z M346.6,438.2c-1.1-1.2-2.5-1.8-4.2-1.8c-1.6,0-3,0.6-4.2,1.8c-1.1,1.2-1.7,2.6-1.7,4.2s0.6,3,1.7,4.2
		c1.1,1.2,2.5,1.8,4.2,1.8c1.6,0,3-0.6,4.2-1.8c1.1-1.2,1.7-2.6,1.7-4.2C348.3,440.8,347.7,439.4,346.6,438.2z M339.3,425.7
		c0.7-0.7,1.6-1.1,2.6-1.1s1.8,0.3,2.6,1c0.7,0.7,1.1,1.5,1.1,2.6c0,1-0.4,1.8-1.1,2.6c-0.7,0.7-1.6,1-2.6,1s-1.8-0.3-2.6-1
		c-0.7-0.7-1.1-1.5-1.1-2.5C338.2,427.2,338.6,426.4,339.3,425.7z M340.3,428.2c0,0.4,0.2,0.8,0.5,1.1s0.7,0.5,1.2,0.5
		s0.8-0.1,1.1-0.5c0.3-0.3,0.5-0.7,0.5-1.1s-0.2-0.8-0.5-1.1c-0.3-0.3-0.7-0.5-1.1-0.5c-0.5,0-0.8,0.2-1.1,0.5
		C340.4,427.4,340.3,427.8,340.3,428.2z"/>
	<path id="XMLID_124_" class="st0" d="M364.6,434.1h4.1v-6.4h2.6v6.4h4.1v2.4h-4.1v14.1h-2.6v-14.1h-4.1V434.1z"/>
	<path id="XMLID_127_" class="st0" d="M395.2,443.4h-14.5c0.3,1.4,0.9,2.6,2.1,3.5c1.1,0.9,2.4,1.4,3.8,1.4c1,0,1.9-0.2,2.7-0.7
		s1.6-1,2.2-1.8h3c-0.7,1.6-1.8,2.8-3.2,3.7c-1.4,0.9-2.9,1.4-4.3,1.4s-2.7-0.2-3.8-0.7c-1-0.5-2-1.1-2.7-1.8
		c-1.7-1.7-2.5-3.7-2.5-6.1c0-2.4,0.8-4.4,2.5-6.1s3.7-2.5,6.1-2.5c2.3,0,4.3,0.8,6,2.4c1.7,1.7,2.6,3.6,2.6,5.9L395.2,443.4
		L395.2,443.4z M390.3,437.6c-1.1-0.9-2.3-1.4-3.7-1.4c-2.1,0-3.8,1-5.1,2.9c-0.4,0.6-0.6,1.2-0.8,1.9h11.7
		C392.1,439.7,391.4,438.6,390.3,437.6z"/>
	<path id="XMLID_138_" class="st0" d="M399.5,450.6v-28.2h2.6v19.1l6.1-7.4h3.5l-6.8,8l7.3,8.5h-3.5l-6.5-7.9v7.9H399.5z"/>
	<path id="XMLID_140_" class="st0" d="M426.8,440.3c0-1.1-0.2-2-0.7-2.8c-0.5-0.8-1.3-1.1-2.4-1.1s-2,0.2-2.7,0.6
		c-0.7,0.4-1.3,1-1.7,1.7c-0.8,1.2-1.2,2.9-1.2,5v6.9h-2.6v-16.5h2.6v2.8c0.6-0.9,1.3-1.7,2.1-2.3c0.9-0.6,1.9-0.9,3.1-0.9
		s2.1,0.2,2.9,0.5c0.8,0.3,1.3,0.8,1.8,1.4c1,1.2,1.5,2.7,1.5,4.6v10.3h-2.6L426.8,440.3L426.8,440.3z"/>
	<path id="XMLID_143_" class="st0" d="M437.6,429.6c0,0.5-0.2,0.9-0.5,1.2s-0.7,0.5-1.2,0.5s-0.9-0.2-1.2-0.5
		c-0.3-0.3-0.5-0.7-0.5-1.2s0.2-0.9,0.5-1.2c0.3-0.3,0.7-0.5,1.2-0.5s0.9,0.2,1.2,0.5C437.5,428.7,437.6,429.1,437.6,429.6z
		 M434.7,450.6v-16.5h2.6v16.5H434.7z"/>
	<path id="XMLID_146_" class="st0" d="M448,448.9c2.4,0,3.6-0.9,3.6-2.7c0-1-0.9-1.9-2.6-2.4c-0.7-0.2-1.5-0.5-2.3-0.7
		c-0.8-0.2-1.6-0.5-2.4-0.8c-0.9-0.4-1.5-0.9-1.9-1.5s-0.6-1.3-0.6-2.1c0-1.6,0.6-2.9,1.7-3.7c1.2-0.8,2.5-1.3,4.1-1.3s2.9,0.3,4,1
		c1.1,0.7,1.8,1.8,2.1,3.5H451c-0.3-0.9-0.7-1.5-1.3-1.8c-0.6-0.3-1.3-0.5-2.1-0.5s-1.5,0.2-2.1,0.5c-0.6,0.4-0.9,0.9-0.9,1.7
		c0,0.7,0.3,1.3,0.7,1.6c0.5,0.3,1.1,0.6,1.8,0.9c0.7,0.2,1.5,0.4,2.3,0.6s1.6,0.5,2.4,0.8c1.7,0.8,2.6,2.1,2.6,3.9
		c0,1.8-0.6,3.1-1.9,3.9c-0.6,0.4-1.3,0.7-2.1,1c-0.8,0.2-1.6,0.3-2.5,0.3c-3.8,0-6-1.7-6.6-5.1h2.8c0.3,1.1,0.8,1.8,1.4,2.3
		C446.2,448.7,447,448.9,448,448.9z"/>
	<path id="XMLID_149_" class="st0" d="M458.2,450.6v-28.2h2.6v19.1l6.1-7.4h3.5l-6.8,8l7.3,8.5h-3.5l-6.5-7.9v7.9H458.2z"/>
	<path id="XMLID_151_" class="st0" d="M487.2,450.6v-2.8c-0.1,0.2-0.3,0.4-0.5,0.6c-1.6,1.8-3.5,2.6-5.8,2.6s-4.2-0.9-5.8-2.6
		c-1.5-1.7-2.3-3.7-2.3-6c0-2.3,0.8-4.3,2.3-6c1.6-1.8,3.5-2.6,5.8-2.6s4.2,0.9,5.8,2.6c0.2,0.2,0.3,0.4,0.5,0.6v-2.8h2.6v16.5h-2.6
		V450.6z M485.5,438.2c-1.1-1.2-2.5-1.8-4.2-1.8c-1.6,0-3,0.6-4.2,1.8c-1.1,1.2-1.7,2.6-1.7,4.2s0.6,3,1.7,4.2
		c1.1,1.2,2.5,1.8,4.2,1.8c1.6,0,3-0.6,4.2-1.8c1.1-1.2,1.7-2.6,1.7-4.2S486.6,439.4,485.5,438.2z"/>
	<path id="XMLID_156_" class="st0" d="M511.5,451c-1.9,0-3.3-0.6-4.3-1.8s-1.6-2.8-1.6-4.7v-10.3h2.6v10.3c0,1.1,0.2,2,0.7,2.8
		s1.3,1.1,2.4,1.1c2.1,0,3.5-0.6,4.4-1.9c0.9-1.3,1.3-3.1,1.3-5.4v-6.9h2.6v16.5H517v-2.8C515.8,449.9,513.9,451,511.5,451z"/>
	<path id="XMLID_158_" class="st0" d="M536.2,440.3c0-1.1-0.2-2-0.7-2.8c-0.5-0.8-1.3-1.1-2.4-1.1c-1.1,0-2,0.2-2.7,0.6
		c-0.7,0.4-1.3,1-1.7,1.7c-0.8,1.2-1.2,2.9-1.2,5v6.9h-2.6v-16.5h2.6v2.8c0.6-0.9,1.3-1.7,2.1-2.3c0.9-0.6,1.9-0.9,3.1-0.9
		c1.2,0,2.1,0.2,2.9,0.5c0.8,0.3,1.3,0.8,1.8,1.4c1,1.2,1.5,2.7,1.5,4.6v10.3h-2.6L536.2,440.3L536.2,440.3z"/>
	<path id="XMLID_160_" class="st0" d="M547,429.6c0,0.5-0.2,0.9-0.5,1.2s-0.7,0.5-1.2,0.5s-0.9-0.2-1.2-0.5s-0.5-0.7-0.5-1.2
		s0.2-0.9,0.5-1.2c0.3-0.3,0.7-0.5,1.2-0.5s0.9,0.2,1.2,0.5C546.9,428.7,547,429.1,547,429.6z M544.1,450.6v-16.5h2.6v16.5H544.1z"
		/>
	<path id="XMLID_163_" class="st0" d="M550,434.1h2.9l4.8,12.3l4.7-12.3h2.9l-7.6,18.1L550,434.1z"/>
	<path id="XMLID_165_" class="st0" d="M584.6,443.4h-14.5c0.3,1.4,0.9,2.6,2.1,3.5c1.1,0.9,2.4,1.4,3.8,1.4c1,0,1.9-0.2,2.7-0.7
		s1.6-1,2.2-1.8h3c-0.7,1.6-1.8,2.8-3.2,3.7c-1.4,0.9-2.9,1.4-4.3,1.4s-2.7-0.2-3.8-0.7c-1-0.5-2-1.1-2.7-1.8
		c-1.7-1.7-2.5-3.7-2.5-6.1c0-2.4,0.8-4.4,2.5-6.1s3.7-2.5,6.1-2.5c2.3,0,4.3,0.8,6,2.4c1.7,1.7,2.6,3.6,2.6,5.9L584.6,443.4
		L584.6,443.4z M579.7,437.6c-1.1-0.9-2.3-1.4-3.7-1.4c-2.1,0-3.8,1-5.1,2.9c-0.4,0.6-0.6,1.2-0.8,1.9h11.7
		C581.5,439.7,580.8,438.6,579.7,437.6z"/>
	<path id="XMLID_168_" class="st0" d="M595.5,436.7c-0.7,0-1.3,0.2-1.8,0.6s-0.9,0.9-1.2,1.4c-0.6,1.1-0.9,2.3-0.9,3.7v8.3H589
		v-16.5h2.6v3.4l0.1-0.7c0.9-2.1,2.2-3.1,4.1-3.1c0.6,0,1.1,0.1,1.7,0.3v3.4C596.8,437,596.2,436.7,595.5,436.7z"/>
	<path id="XMLID_170_" class="st0" d="M605.6,448.9c2.4,0,3.6-0.9,3.6-2.7c0-1-0.9-1.9-2.6-2.4c-0.7-0.2-1.5-0.5-2.3-0.7
		c-0.8-0.2-1.6-0.5-2.4-0.8c-0.9-0.4-1.5-0.9-1.9-1.5s-0.6-1.3-0.6-2.1c0-1.6,0.6-2.9,1.7-3.7c1.2-0.8,2.5-1.3,4.1-1.3s2.9,0.3,4,1
		c1.1,0.7,1.8,1.8,2.1,3.5h-2.8c-0.3-0.9-0.7-1.5-1.3-1.8c-0.6-0.3-1.3-0.5-2.1-0.5s-1.5,0.2-2.1,0.5c-0.6,0.4-0.9,0.9-0.9,1.7
		c0,0.7,0.3,1.3,0.7,1.6c0.5,0.3,1.1,0.6,1.8,0.9c0.7,0.2,1.5,0.4,2.3,0.6s1.6,0.5,2.4,0.8c1.7,0.8,2.6,2.1,2.6,3.9
		c0,1.8-0.6,3.1-1.9,3.9c-0.6,0.4-1.3,0.7-2.1,1c-0.8,0.2-1.6,0.3-2.5,0.3c-3.8,0-6-1.7-6.6-5.1h2.8c0.3,1.1,0.8,1.8,1.4,2.3
		C603.7,448.7,604.5,448.9,605.6,448.9z"/>
	<path id="XMLID_172_" class="st0" d="M618.9,429.6c0,0.5-0.2,0.9-0.5,1.2s-0.7,0.5-1.2,0.5s-0.9-0.2-1.2-0.5s-0.5-0.7-0.5-1.2
		s0.2-0.9,0.5-1.2c0.3-0.3,0.7-0.5,1.2-0.5s0.9,0.2,1.2,0.5C618.7,428.7,618.9,429.1,618.9,429.6z M615.9,450.6v-16.5h2.6v16.5
		H615.9z"/>
	<path id="XMLID_175_" class="st0" d="M622.3,434.1h4.1v-6.4h2.6v6.4h4.1v2.4H629v14.1h-2.6v-14.1h-4.1L622.3,434.1L622.3,434.1z"/>
	<path id="XMLID_177_" class="st0" d="M652.9,443.4h-14.5c0.3,1.4,0.9,2.6,2.1,3.5c1.1,0.9,2.4,1.4,3.8,1.4c1,0,1.9-0.2,2.7-0.7
		s1.6-1,2.2-1.8h3c-0.7,1.6-1.8,2.8-3.2,3.7c-1.4,0.9-2.9,1.4-4.3,1.4s-2.7-0.2-3.8-0.7c-1-0.5-2-1.1-2.7-1.8
		c-1.7-1.7-2.5-3.7-2.5-6.1c0-2.4,0.8-4.4,2.5-6.1s3.7-2.5,6.1-2.5c2.3,0,4.3,0.8,6,2.4c1.7,1.7,2.6,3.6,2.6,5.9L652.9,443.4
		L652.9,443.4z M648,437.6c-1.1-0.9-2.3-1.4-3.7-1.4c-2.1,0-3.8,1-5.1,2.9c-0.4,0.6-0.6,1.2-0.8,1.9h11.7
		C649.8,439.7,649.1,438.6,648,437.6z"/>
	<path id="XMLID_180_" class="st0" d="M655.1,434.1h4.1v-6.4h2.6v6.4h4.1v2.4h-4.1v14.1h-2.6v-14.1h-4.1V434.1z"/>
</g>
<g id="XMLID_78_">
	<path id="XMLID_132_" class="st0" d="M187.8,414.7c0-23.9,0-47.8,0-71.7c0-5.9,0-11.9,0-17.8c0-1.6-1.4-3-3-3c-42,0-84,0-126,0
		c-5.8,0.1-11.7,0.1-17.7,0.1c-0.9,0-1.5,0.3-2,0.8l-0.1,0.1c0,0,0,0-0.1,0.1c-0.5,0.5-0.8,1.1-0.8,2c0,20.6,0,41.2,0,61.8
		c-5,0.8-9.9,2.3-14.8,4.5c-2.2,1-1.8,5.1,0.7,5.4c4.8,0.6,9.4,1.5,14,2.7c0,17.2,0,34.3,0,51.5c0,5.9,0,11.9,0,17.8
		c0,1.6,1.4,3,3,3c19.8,0,39.5,0,59.3,0c19.3,0,38.7,0,58,0c0.4,0,0.7,0,1.1,0c1.3,0.1,2.7,0,4.5,0c1,0,2.1,0,3.1,0
		c5.9,0,11.8,0,17.8,0l0,0c1.6,0,3-1.4,3-3c0-14,0-28,0-42C187.9,422.9,187.9,418.8,187.8,414.7z M173.3,457.2
		c-0.6-0.3-1.1-0.5-1.7-0.7c0,0,0,0-0.1,0s-0.2-0.1-0.4-0.1c-3.2-1.2-6.6-1.8-10.1-2.1c-2.8-0.2-7.3-0.6-10.5,0.6
		c-0.2,0.1-0.3,0.1-0.5,0.2c-0.3-0.3-0.7-0.7-1-1c4.6-3.1,8.6-7,11.5-12c4.4-7.6,10-11.6,17.7-11.5c0.1,0,0.2,0,0.3,0
		c0.4,0,0.8,0,1.2,0.1c0.2,0,0.4,0,0.7,0.1c0.4,0,0.7,0.1,1.1,0.1c0.1,0,0.2,0,0.3,0c0,11,0,22.1,0,33.1c-0.9-0.7-1.8-1.5-2.7-2.4
		c-0.8-0.8-1.6-1.5-2.4-2.1C175.7,458.6,174.6,457.8,173.3,457.2z M110.5,461.9c11.1,2.3,23.1,0,33.4-4.8c1.6,1.9,3.2,3.9,4.9,5.7
		c0.8,1.1,1.8,2.2,2.9,3.2c-16.1,0-32.2,0-48.3,0c-0.1-2.1-0.3-4.2-0.6-6.2C105.2,460.8,107.9,461.4,110.5,461.9z M44.1,343
		c0-4.9,0-9.9,0-14.8c41,0,82,0,123,0c4.9,0,9.9,0,14.8,0c0,25.7,0,51.4,0,77.1c-2.3-1.7-4.8-3.3-6.8-4.6
		c-24.1-15.5-53.5-13.1-80.5-9.3c-12.1,1.7-23.4-1.6-35.1-3.9c-5.3-1-10.4-1.4-15.4-1.1C44.1,372,44.1,357.5,44.1,343z M44.1,392.4
		c6-0.4,12.1,0.3,18.3,1.8c10.5,2.6,21.2,4.6,32,3.2c26.1-3.4,54.3-6.6,77.7,8.4c2.1,1.4,4.1,3,6.1,4.6c0.5,0.4,3.3,2.3,3.7,2.2
		c0,1.4,0,2.8,0,4.3v0.1c0,2.6,0,5.2,0,7.8c-5.5-0.8-11-0.4-16,2.5c-0.6,0.3-1.2,0.7-1.7,1.1c-0.2,0.2-0.5,0.3-0.7,0.5
		c-3,2.3-5.3,5.2-7.2,8.5c-3.4,5.9-7.2,9.9-13.2,13.3c-0.2,0.1-0.3,0.2-0.4,0.3c-6.3,3.2-13.5,5.4-20.7,5.8
		c-7.4,0.2-14.7-1.3-20.7-4.9c-1.1-8.1-6.3-17.4-10.6-23.9c-4.9-7.4-11.2-13.8-18.4-19.1c-8.6-6.1-18.2-10.6-28.2-13.7l-5.9-1.6
		c-0.4-0.1-0.8-0.2-1.2-0.3c0.4-0.1,0.8-0.2,1.2-0.2L44.1,392.4z M44.1,466c0-21.5,0-43.1,0-64.6c8.4,2.7,16.4,6.5,23.8,11.6
		c7.4,5.1,13.7,11.6,18.5,19.1c2.4,3.7,4.4,7.7,6,11.8c1.2,3.1,1.6,8.4,3.6,11.2c0.7,3.6,1.1,7.2,1.3,10.8c-12.8,0-25.6,0-38.4,0
		C54,466,49,466,44.1,466z M160.1,466c-0.1-0.2-0.2-0.3-0.4-0.5c-1.4-1.9-2.9-3.6-4.5-5.3c0.8-0.1,1.6-0.3,2-0.3c0.3,0,0.5,0,0.7,0
		c0.5,0,1.1,0,1.6,0s1.1,0.1,1.6,0.1c0.2,0,0.4,0,0.6,0.1c0.6,0.1,1.2,0.1,1.8,0.2c0.2,0,0.5,0.1,0.7,0.1c0.7,0.1,1.4,0.3,2,0.4
		c0.7,0.2,1.3,0.3,2,0.5c0.1,0,0.2,0.1,0.3,0.1c3,1,4.9,2.5,6.8,4.4C170.2,466,165.1,466,160.1,466z"/>
	<path id="XMLID_155_" class="st0" d="M128.2,412.6c-4.4,0-8,3.7-8,8c0,4.3,3.5,7.9,7.8,8c4.3,0.2,7.6-3.1,8.2-7.1
		c0.1-0.3,0.1-0.6,0.1-0.9c0-0.4,0-0.7-0.1-0.9C135.5,415.7,132.4,412.6,128.2,412.6z M126.1,420.6c0-2.8,4.1-2.7,4.2,0
		C130.2,423.3,126.1,423.4,126.1,420.6z"/>
</g>
</svg>
