<svg id="Layer_1" xmlns="http://www.w3.org/2000/svg" viewBox="0 0 335.6 335.6"><style>.st0{fill:#14153f}.st1{fill:#fff}.st3{fill:#13143e}</style><g id="XMLID_98_"><g id="XMLID_109_"><path id="XMLID_111_" class="st0" d="M246.8 246.8l29.9 29.9"/><g id="XMLID_88_"><path id="XMLID_110_" class="st1" d="M243.3 250.4l29.9 29.9c4.6 4.6 11.6-2.5 7.1-7.1l-29.9-29.9c-4.6-4.6-11.7 2.5-7.1 7.1z"/></g></g><g id="XMLID_108_"><path id="XMLID_87_" class="st0" d="M246.8 88.8l29.9-29.9"/><g id="XMLID_80_"><path id="XMLID_86_" class="st1" d="M250.4 92.3l29.9-29.9c4.6-4.6-2.5-11.6-7.1-7.1l-29.9 29.9c-4.6 4.6 2.5 11.6 7.1 7.1z"/></g></g><g id="XMLID_107_"><path id="XMLID_79_" class="st0" d="M167.8 56V13.8"/><g id="XMLID_72_"><path id="XMLID_78_" class="st1" d="M172.8 56V13.8c0-6.4-10-6.4-10 0V56c0 6.4 10 6.5 10 0z"/></g></g><g id="XMLID_106_"><path id="XMLID_71_" class="st0" d="M88.8 88.8L58.9 58.9"/><g id="XMLID_65_"><path id="XMLID_70_" class="st1" d="M92.3 85.2L62.4 55.3c-4.6-4.6-11.6 2.5-7.1 7.1l29.9 29.9c4.6 4.5 11.6-2.5 7.1-7.1z"/></g></g><g id="XMLID_105_"><path id="XMLID_64_" class="st0" d="M279.6 167.8h42.2"/><g id="XMLID_57_"><path id="XMLID_63_" class="st1" d="M279.6 172.8h42.2c6.4 0 6.4-10 0-10h-42.2c-6.5 0-6.5 10 0 10z"/></g></g><g id="XMLID_104_"><path id="XMLID_56_" class="st0" d="M56 167.8H13.8"/><g id="XMLID_50_"><path id="XMLID_55_" class="st1" d="M56 162.8H13.8c-6.4 0-6.4 10 0 10H56c6.4 0 6.5-10 0-10z"/></g></g><g id="XMLID_100_"><path id="XMLID_49_" class="st0" d="M88.8 246.8l-29.9 29.9"/><g id="XMLID_44_"><path id="XMLID_48_" class="st1" d="M85.2 243.3l-29.9 29.9c-4.6 4.6 2.5 11.6 7.1 7.1l29.9-29.9c4.5-4.6-2.5-11.7-7.1-7.1z"/></g></g><g id="XMLID_99_"><path id="XMLID_43_" class="st0" d="M167.8 279.6v42.2"/><g id="XMLID_34_"><path id="XMLID_41_" class="st1" d="M162.8 279.6v42.2c0 6.4 10 6.4 10 0v-42.2c0-6.5-10-6.5-10 0z"/></g></g></g><g id="XMLID_4_"><path id="XMLID_97_" fill="#13143e" stroke="#13143e" stroke-miterlimit="10" d="M99 170.3l30.2 33.5 40.6 31.9 68.6-65.4-137.5-2.5z"/><g id="XMLID_68_"><g id="XMLID_94_"><g id="XMLID_96_"><path id="XMLID_59_" class="st3" d="M91.6 162.8l39.7-42.8 3.5 4.1c11.7-13 23.4-25.9 35.2-38.9 9.1 10.9 18.2 21.7 27.2 32.5 1.1-1 2-1.9 3.1-2.8 7.5 8.8 15 17.5 22.6 26.4.7-.9 1.4-1.7 2.2-2.5 7.7 7.8 15.2 15.5 22.9 23.4-52.4.2-104.4.4-156.4.6z"/><g id="XMLID_35_"><path id="XMLID_51_" class="st3" d="M96.9 168.1c13.2-14.3 26.4-28.5 39.7-42.8H126c1.2 1.4 2.3 2.7 3.5 4.1 2.6 3 8 2.8 10.6 0 11.7-13 23.4-25.9 35.2-38.9h-10.6c9.1 10.8 18.2 21.7 27.2 32.5 2.7 3.2 7.8 2.6 10.6 0 1-.9 2-1.9 3.1-2.8H195c7.5 8.8 15.1 17.6 22.6 26.4 2.5 2.9 8.1 2.9 10.6 0 .7-.8 1.5-1.7 2.2-2.5h-10.6c7.6 7.8 15.2 15.6 22.9 23.4 1.8-4.3 3.5-8.5 5.3-12.8l-156.3.6c-9.7 0-9.7 15 0 15l156.3-.6c6.5 0 9.8-8.2 5.3-12.8-7.6-7.8-15.2-15.6-22.9-23.4-2.7-2.7-8-3-10.6 0-.7.8-1.5 1.7-2.2 2.5h10.6c-7.5-8.8-15.1-17.6-22.6-26.4-2.7-3.2-7.8-2.6-10.6 0-1 .9-2 1.9-3.1 2.8h10.6c-9.1-10.8-18.2-21.7-27.2-32.5-2.5-3-8.1-2.8-10.6 0-11.7 13-23.4 25.9-35.2 38.9h10.6c-1.2-1.4-2.3-2.7-3.5-4.1-2.6-3-8-2.8-10.6 0-13.2 14.3-26.4 28.5-39.7 42.8-6.5 7 4 17.7 10.6 10.6z"/></g></g></g><g id="XMLID_76_"><path id="XMLID_130_" class="st3" d="M91.5 165.1v.4c.6.6 1.2 1.3 1.8 1.9.4.4.7.8 1.1 1.1.7.7 1.4 1.5 2.1 2.2 11.7 12.5 23.3 24.8 35 37.2 1.2-1.4 2.3-2.7 3.5-4.1 11.8 12.9 23.6 25.7 35.4 38.6l27-32.7c1.1 1 2 1.9 3.1 2.8 7.5-8.8 14.9-17.6 22.6-26.7.7 1 1.4 1.8 2.1 2.7 5.8-6 11.5-11.9 17.2-17.8.7-.7 1.4-1.5 2.2-2.2.4-.4.7-.8 1.1-1.1.8-.8 1.5-1.6 2.3-2.3H91.5zm143.6 5.7c-3.5 3.6-6.9 7.1-10.3 10.6-1-.8-1.9-1.6-2.8-2.4-7.4 8.8-14.7 17.5-22.2 26.3-1.1-1-2.1-1.8-3.1-2.8-8.8 10.7-17.7 21.3-26.5 32-11.7-12.8-23.3-25.5-35-38.3-.9 1-1.7 1.9-2.5 2.8-.2.3-.5.5-.8.8-.4.4-.7.4-1.1 0-3.4-3.7-6.8-7.4-10.2-11l-5.7-6c-3.7-3.9-7.3-7.8-11-11.7-.1-.1-.1-.2-.2-.3 0 0 0-.1-.1-.1.3 0 .6-.1.8-.1h7.5c19.8-.1 39.6-.1 59.5-.2 6.4 0 12.8-.1 19.1-.1 2.2 0 4.5.1 6.7.1 12.3-.1 24.5-.1 36.8-.2.4 0 .8 0 1.4.1 0 .2-.2.4-.3.5z"/><g id="XMLID_122_"><path id="XMLID_129_" class="st3" d="M84 165.1c0 4.3 3.4 7 6.1 9.9 3.9 4.2 7.9 8.4 11.8 12.6 8.1 8.6 16.1 17.1 24.2 25.7 2.6 2.8 8 3 10.6 0 1.2-1.4 2.3-2.7 3.5-4.1h-10.6c11.8 12.9 23.6 25.8 35.4 38.6 2.6 2.8 8.1 3 10.6 0l27-32.7H192c1 .9 2 1.9 3.1 2.8 2.8 2.6 7.9 3.2 10.6 0 7.5-8.9 15-17.8 22.6-26.7h-10.6l2.1 2.7c2.5 3.2 8.1 2.6 10.6 0 7.6-7.8 15.1-15.7 22.7-23.5 4.5-4.6 1.3-12.8-5.3-12.8H91.5c-9.7 0-9.7 15 0 15h156.3c-1.8-4.3-3.5-8.5-5.3-12.8-7.6 7.8-15.1 15.7-22.7 23.5h10.6l-2.1-2.7c-2.4-3-8.2-2.8-10.6 0-7.5 8.9-15 17.8-22.6 26.7h10.6c-1-.9-2-1.9-3.1-2.8-2.8-2.5-7.9-3.2-10.6 0l-27 32.7h10.6c-11.8-12.9-23.6-25.8-35.4-38.6-2.6-2.8-8.1-3-10.6 0-1.2 1.4-2.3 2.7-3.5 4.1h10.6c-13.3-14.2-26.6-28.3-39.9-42.5.7 1.8 1.5 3.5 2.2 5.3v-.4c0-9.6-15-9.6-15 0z"/><path id="XMLID_128_" class="st3" d="M229.8 165.5c-3.4 3.5-6.8 7.1-10.3 10.6h10.6c-.9-.8-1.9-1.6-2.8-2.4-2.9-2.4-7.8-3.3-10.6 0-7.4 8.8-14.8 17.5-22.2 26.3h10.6c-1-.9-2.1-1.9-3.1-2.8-2.8-2.5-7.9-3.3-10.6 0-8.8 10.7-17.7 21.3-26.5 32h10.6c-11.7-12.8-23.4-25.5-35-38.3-2.6-2.9-8-2.9-10.6 0-.1.2-2.6 2.8-2.2 2.6h7.6c-2.4-1.4-4.7-5.3-6.7-7.4l-6.6-6.9c-2.2-2.3-4.4-4.6-6.6-7-1.6-1.7-4.1-3.5-5.2-5.4-2.2 3.8-4.3 7.5-6.5 11.3 10.5-1 21.5-.1 32.1-.2 11.6 0 23.1-.1 34.7-.1h31.7c11.1-.1 22.3-.6 33.4-.1-1.8-4.3-3.5-8.5-5.3-12.8-.2.3-.4.5-.5.6-6.7 6.9 3.9 17.6 10.6 10.6l.5-.5c4.7-4.8 1.1-12.5-5.3-12.8-10.7-.5-21.6.1-32.4.1-10.9.1-21.7 0-32.6 0-11.2 0-22.5.1-33.7.1-10.9 0-22.3-.9-33.1.2-5.5.5-9.5 6-6.5 11.3 2.1 3.6 5.9 6.7 8.7 9.7 3.5 3.8 7.1 7.4 10.7 11.2 3.3 3.5 6.5 8.6 10.7 11 5.5 3.2 9.7-.9 13.1-4.8h-10.6c11.7 12.8 23.4 25.5 35 38.3 2.6 2.8 8.1 3 10.6 0 8.8-10.7 17.7-21.3 26.5-32h-10.6c1 .9 2.1 1.9 3.1 2.8 2.8 2.5 7.9 3.2 10.6 0 7.4-8.8 14.8-17.5 22.2-26.3h-10.6c.9.8 1.9 1.6 2.8 2.4 3.1 2.6 7.6 3.1 10.6 0 3.4-3.5 6.8-7.1 10.3-10.6 6.7-7-3.9-17.6-10.6-10.7z"/></g></g></g><g id="XMLID_5_"><g id="XMLID_9_"><path id="XMLID_58_" class="st1" d="M91.6 162.8l39.7-42.8 3.5 4.1c11.7-13 23.4-25.9 35.2-38.9 9.1 10.9 18.2 21.7 27.2 32.5 1.1-1 2-1.9 3.1-2.8 7.5 8.8 15 17.5 22.6 26.4.7-.9 1.4-1.7 2.2-2.5 7.7 7.8 15.2 15.5 22.9 23.4-52.4.2-104.4.4-156.4.6z"/></g><path id="XMLID_6_" class="st1" d="M91.5 165.1v.4c.6.6 1.2 1.3 1.8 1.9.4.4.7.8 1.1 1.1.7.7 1.4 1.5 2.1 2.2 11.7 12.5 23.3 24.8 35 37.2 1.2-1.4 2.3-2.7 3.5-4.1 11.8 12.9 23.6 25.7 35.4 38.6l27-32.7c1.1 1 2 1.9 3.1 2.8 7.5-8.8 14.9-17.6 22.6-26.7.7 1 1.4 1.8 2.1 2.7 5.8-6 11.5-11.9 17.2-17.8.7-.7 1.4-1.5 2.2-2.2.4-.4.7-.8 1.1-1.1.8-.8 1.5-1.6 2.3-2.3H91.5zm143.6 5.7c-3.5 3.6-6.9 7.1-10.3 10.6-1-.8-1.9-1.6-2.8-2.4-7.4 8.8-14.7 17.5-22.2 26.3-1.1-1-2.1-1.8-3.1-2.8-8.8 10.7-17.7 21.3-26.5 32-11.7-12.8-23.3-25.5-35-38.3-.9 1-1.7 1.9-2.5 2.8-.2.3-.5.5-.8.8-.4.4-.7.4-1.1 0-3.4-3.7-6.8-7.4-10.2-11l-5.7-6c-3.7-3.9-7.3-7.8-11-11.7-.1-.1-.1-.2-.2-.3 0 0 0-.1-.1-.1.3 0 .6-.1.8-.1h7.5c19.8-.1 39.6-.1 59.5-.2 6.4 0 12.8-.1 19.1-.1 2.2 0 4.5.1 6.7.1 12.3-.1 24.5-.1 36.8-.2.4 0 .8 0 1.4.1 0 .2-.2.4-.3.5z"/></g></g></svg>